<?xml version="1.0" encoding="utf-8"?>
<!-- Generator: Adobe Illustrator 27.1.1, SVG Export Plug-In . SVG Version: 6.00 Build 0)  -->
<svg version="1.1" id="Layer_1" xmlns="http://www.w3.org/2000/svg" xmlns:xlink="http://www.w3.org/1999/xlink" x="0px" y="0px"
	 viewBox="0 0 1000 400" style="enable-background:new 0 0 1000 400;" xml:space="preserve">
<style type="text/css">
	.st0{fill:#202858;}
</style>
<g>
	<g>
		<path class="st0" d="M421.9,196.3h3.6v-9.9l-2.7,1.1l-1.2-2.8l5.1-2.1h2.6v13.8h3.4v2.9h-10.8V196.3z"/>
		<path class="st0" d="M442.7,186.2h-7.5v-3.6H447v2.5l-5.5,14.1h-4.3L442.7,186.2z"/>
		<path class="st0" d="M451.2,189.3H449v-2.8h2.2v-2.8l3.6-0.5v3.3h3.4v2.8h-3.4v5.1c0,1.4,0.6,1.9,1.6,1.9c0.4,0,1-0.1,1.5-0.3
			l0.4,3.1c-0.8,0.3-1.8,0.5-2.7,0.5c-2.8,0-4.5-1.5-4.5-4.7v-5.6H451.2z"/>
		<path class="st0" d="M460.8,182l3.6-0.5v6.6c1-1.1,2.2-1.8,3.7-1.8c2.2,0,4.4,1.7,4.4,5.1v7.9H469V192c0-1.6-0.9-2.3-2.2-2.3
			c-0.8,0-1.7,0.3-2.4,0.9v8.7h-3.6V182z"/>
		<path class="st0" d="M481.8,196.3h2.2v-10.9h-2.2v-2.9h8.2v2.9h-2.2v10.9h2.2v2.9h-8.2V196.3z"/>
		<path class="st0" d="M493.6,182.6h5l5.8,11.8v-11.8h3.5v16.7h-4.7l-6.1-12.4v12.4h-3.5L493.6,182.6L493.6,182.6z"/>
		<path class="st0" d="M515,185.9h-4.5v-3.4h13v3.4H519v13.3h-4V185.9z"/>
		<path class="st0" d="M526,182.6h11.7v3.4h-7.9v3.3h6.7v3.2h-6.7v3.4h8v3.4H526V182.6z"/>
		<path class="st0" d="M541.3,182.6h6.3c3.5,0,6.2,2.1,6.2,5.6c0,2.3-1.3,3.9-3.2,4.8l3.7,6.4H550l-3-5.8h-1.9v5.8h-3.9v-16.8H541.3
			z M545.1,185.9v4.4h2.1c1.6,0,2.6-0.7,2.6-2.2s-1.1-2.2-2.6-2.2H545.1z"/>
		<path class="st0" d="M557.1,182.6h5l5.8,11.8v-11.8h3.5v16.7h-4.7l-6.1-12.4v12.4h-3.5V182.6z"/>
		<path class="st0" d="M579.4,182.6h3.7l6.1,16.7h-4.1L584,196h-5.6l-1.1,3.3h-4L579.4,182.6z M583,192.9l-1.8-5.3l-1.8,5.3H583z"/>
		<path class="st0" d="M593.1,185.9h-4.5v-3.4h13v3.4h-4.5v13.3h-3.9L593.1,185.9L593.1,185.9z"/>
		<path class="st0" d="M603.6,196.3h2.2v-10.9h-2.2v-2.9h8.2v2.9h-2.2v10.9h2.2v2.9h-8.2V196.3z"/>
		<path class="st0" d="M622.3,182.3c4.3,0,7.9,3.2,7.9,8.6c0,5.4-3.6,8.6-7.9,8.6c-4.4,0-7.9-3.2-7.9-8.6
			C614.4,185.5,618,182.3,622.3,182.3z M622.3,196.1c2.3,0,4-1.7,4-5.2s-1.7-5.2-4-5.2s-4,1.7-4,5.2
			C618.4,194.4,620,196.1,622.3,196.1z"/>
		<path class="st0" d="M633.3,182.6h5l5.8,11.8v-11.8h3.5v16.7h-4.7l-6.1-12.4v12.4h-3.5V182.6z"/>
		<path class="st0" d="M655.6,182.6h3.7l6.1,16.7h-4.1l-1.1-3.3h-5.6l-1.1,3.3h-4L655.6,182.6z M659.2,192.9l-1.8-5.3l-1.8,5.3
			H659.2z"/>
		<path class="st0" d="M667.4,182.6h3.9v13.3h7.5v3.4h-11.4V182.6z"/>
		<path class="st0" d="M694.9,182.3c2.1,0,3.8,0.6,5.5,1.7l-2.1,3.1c-1-0.7-2.2-1.2-3.5-1.2c-2.3,0-4.2,1.7-4.2,5s1.9,5,4.2,5
			c1.3,0,2.5-0.5,3.5-1.3l2.2,3c-1.6,1.3-3.3,2-5.5,2c-4.5,0-8.3-3.2-8.3-8.6C686.6,185.5,690.4,182.3,694.9,182.3z"/>
		<path class="st0" d="M709.7,182.3c4.3,0,7.9,3.2,7.9,8.6c0,5.4-3.6,8.6-7.9,8.6c-4.4,0-7.9-3.2-7.9-8.6S705.4,182.3,709.7,182.3z
			 M709.7,196.1c2.3,0,4-1.7,4-5.2s-1.7-5.2-4-5.2s-4,1.7-4,5.2C705.8,194.4,707.5,196.1,709.7,196.1z"/>
		<path class="st0" d="M720.7,182.6h5l5.8,11.8v-11.8h3.5v16.7h-4.7l-6.1-12.4v12.4h-3.5V182.6z"/>
		<path class="st0" d="M739,182.6h11.4v3.4h-7.5v3.9h6.5v3.4h-6.5v6H739V182.6z"/>
		<path class="st0" d="M753.3,182.6H765v3.4h-7.9v3.3h6.7v3.2h-6.7v3.4h8v3.4h-11.8V182.6z"/>
		<path class="st0" d="M768.6,182.6h6.3c3.5,0,6.2,2.1,6.2,5.6c0,2.3-1.3,3.9-3.2,4.8l3.7,6.4h-4.3l-3-5.8h-1.9v5.8h-3.9v-16.8
			H768.6z M772.5,185.9v4.4h2.1c1.6,0,2.6-0.7,2.6-2.2s-1.1-2.2-2.6-2.2H772.5z"/>
		<path class="st0" d="M784.5,182.6h11.7v3.4h-7.9v3.3h6.7v3.2h-6.7v3.4h8v3.4h-11.8V182.6z"/>
		<path class="st0" d="M799.7,182.6h5l5.8,11.8v-11.8h3.5v16.7h-4.7l-6.1-12.4v12.4h-3.5V182.6z"/>
		<path class="st0" d="M825.3,182.3c2.1,0,3.8,0.6,5.5,1.7l-2.1,3.1c-1-0.7-2.2-1.2-3.5-1.2c-2.3,0-4.2,1.7-4.2,5s1.9,5,4.2,5
			c1.3,0,2.5-0.5,3.5-1.3l2.2,3c-1.6,1.3-3.3,2-5.5,2c-4.5,0-8.3-3.2-8.3-8.6C817.1,185.5,820.9,182.3,825.3,182.3z"/>
		<path class="st0" d="M833.8,182.6h11.7v3.4h-7.9v3.3h6.7v3.2h-6.7v3.4h8v3.4h-11.8V182.6z"/>
		<path class="st0" d="M426.7,214.9c3.2,0,5.6,2.3,5.6,6.5s-2.3,6.5-5.6,6.5s-5.6-2.3-5.6-6.5S423.4,214.9,426.7,214.9z
			 M426.7,225.9c2.1,0,3.3-1.6,3.3-4.5s-1.2-4.5-3.3-4.5s-3.3,1.6-3.3,4.5C423.3,224.3,424.6,225.9,426.7,225.9z"/>
		<path class="st0" d="M437.4,215.2l0.4,1.8c1.1-1.2,2.5-2,4-2c2.5,0,4.3,1.6,4.3,5.1v7.6h-2.2v-7.3c0-2.2-1.1-3.2-2.7-3.2
			c-1.1,0-2.2,0.6-3.2,1.5v9h-2.2v-9.5c0-0.7,0-1.2-0.2-1.9l-0.2-1.1L437.4,215.2L437.4,215.2z"/>
		<path class="st0" d="M459.2,214.3h-4.5v-3.4h13v3.4H463v13.3h-3.9v-13.3H459.2z"/>
		<path class="st0" d="M473,210.9h3.7l6.1,16.7h-4.1l-1.1-3.3H472l-1.1,3.3h-4L473,210.9z M476.5,221.3l-1.8-5.3l-1.8,5.3H476.5z"/>
		<path class="st0" d="M484.8,210.9h5l5.8,11.8v-11.8h3.5v16.7h-4.7l-6.1-12.4v12.4h-3.5L484.8,210.9L484.8,210.9z"/>
		<path class="st0" d="M510.3,210.7c2.1,0,3.9,0.5,5.7,1.6l-1.8,3.3c-1.2-0.8-2.4-1.3-3.8-1.3c-2.5,0-4.4,1.7-4.4,5.1
			c0,3.3,1.9,5.2,4.4,5.2c0.7,0,1.6-0.1,2.4-0.5v-2.4h-3.1v-3.2h6.9v7.3c-2,1.5-4,2.2-6.3,2.2c-4.3,0-8.2-3.2-8.2-8.6
			C502.1,213.9,505.9,210.7,510.3,210.7z"/>
		<path class="st0" d="M519.5,224.7h2.2v-10.9h-2.2v-2.9h8.2v2.9h-2.2v10.9h2.2v2.9h-8.2V224.7z"/>
		<path class="st0" d="M531.3,210.9h6.2c3.2,0,5.6,1.7,5.6,4.5c0,1.6-0.8,2.7-2,3.4c1.7,0.8,2.7,2.2,2.7,4.2c0,2.9-2.5,4.6-5.7,4.6
			h-6.8V210.9z M535.1,214.2v3.5h2.1c1.2,0,2-0.6,2-1.7c0-1.1-0.8-1.7-2-1.7h-2.1V214.2z M535.1,220.7v3.7h2.6
			c1.3,0,2.2-0.6,2.2-1.9s-0.9-1.9-2.2-1.9L535.1,220.7L535.1,220.7z"/>
		<path class="st0" d="M547,210.9h3.9v13.3h7.5v3.4H547V210.9z"/>
		<path class="st0" d="M561.2,210.9h11.7v3.4H565v3.3h6.7v3.2H565v3.4h8v3.4h-11.8V210.9z"/>
		<path class="st0" d="M582.5,210.9h11.7v3.4h-7.9v3.3h6.7v3.2h-6.7v3.4h8v3.4h-11.8V210.9z"/>
		<path class="st0" d="M597.7,210.9h5.3l3,8l3-8h5.3v16.7h-3.7v-11.7l-3.3,8.3h-2.6l-3.3-8.3v11.7h-3.7V210.9z"/>
		<path class="st0" d="M618.3,210.9h6.2c3.2,0,5.6,1.7,5.6,4.5c0,1.6-0.8,2.7-2,3.4c1.7,0.8,2.7,2.2,2.7,4.2c0,2.9-2.5,4.6-5.7,4.6
			h-6.8V210.9z M622.2,214.2v3.5h2.1c1.2,0,2-0.6,2-1.7c0-1.1-0.8-1.7-2-1.7h-2.1V214.2z M622.2,220.7v3.7h2.6
			c1.3,0,2.2-0.6,2.2-1.9s-0.9-1.9-2.2-1.9L622.2,220.7L622.2,220.7z"/>
		<path class="st0" d="M634.1,210.9h11.7v3.4h-7.9v3.3h6.7v3.2h-6.7v3.4h8v3.4h-11.8V210.9z"/>
		<path class="st0" d="M649.4,210.9h6.3c4.5,0,8,3.1,8,8.3s-3.5,8.3-8,8.3h-6.3V210.9z M653.2,214.3v9.9h2.1c2.7,0,4.4-1.6,4.4-5
			s-1.8-5-4.4-5h-2.1V214.3z"/>
		<path class="st0" d="M666.8,210.9h6.3c4.5,0,8,3.1,8,8.3s-3.5,8.3-8,8.3h-6.3V210.9z M670.7,214.3v9.9h2.1c2.7,0,4.4-1.6,4.4-5
			s-1.8-5-4.4-5h-2.1V214.3z"/>
		<path class="st0" d="M684.2,210.9H696v3.4h-7.9v3.3h6.7v3.2h-6.7v3.4h8v3.4h-11.8L684.2,210.9L684.2,210.9z"/>
		<path class="st0" d="M699.5,210.9h6.3c4.5,0,8,3.1,8,8.3s-3.5,8.3-8,8.3h-6.3V210.9z M703.4,214.3v9.9h2.1c2.7,0,4.4-1.6,4.4-5
			s-1.8-5-4.4-5h-2.1V214.3z"/>
		<path class="st0" d="M728.4,220.2h1.3V220c0-2.1-1.1-3-2.8-3c-1.3,0-2.3,0.4-3.4,1l-0.8-1.9c1.1-0.7,2.9-1.3,4.4-1.3
			c2.7,0,4.8,1.6,4.8,4.8v4.9c0,0.7,0,1.2,0.2,1.9l0.2,1.1h-2.1l-0.4-1.8c-1,1.2-2.5,2-4.1,2c-1.8,0-3.4-1.3-3.4-3.4
			C722.3,222.3,723.9,220.4,728.4,220.2z M726.2,225.8c1.2,0,2.4-0.6,3.5-1.6v-2.4l-1.2,0.1c-3.1,0.3-3.9,1.3-3.9,2.3
			C724.6,225.3,725.3,225.8,726.2,225.8z"/>
		<path class="st0" d="M737.8,215.2l0.4,1.8c1.1-1.2,2.5-2,4-2c2.5,0,4.3,1.6,4.3,5.1v7.6h-2.2v-7.3c0-2.2-1.1-3.2-2.7-3.2
			c-1.1,0-2.2,0.6-3.2,1.5v9h-2.2v-9.5c0-0.7,0-1.2-0.2-1.9l-0.2-1.1L737.8,215.2L737.8,215.2z"/>
		<path class="st0" d="M754.9,214.9c1.2,0,2.5,0.5,3.3,1.8v-6.4l2.2-0.5v14.8c0,0.7,0,1.2,0.2,1.9l0.2,1.1h-2.1l-0.4-1.8
			c-1.1,1.2-2.5,2-3.9,2c-2.5,0-4.6-2.4-4.6-6.4C749.8,217.4,751.8,214.9,754.9,214.9z M755.1,225.8c1.1,0,2.2-0.6,3.2-1.6v-3.4
			c0-2.8-1.5-4-2.9-4c-2,0-3.2,1.9-3.2,4.6C752.1,224.3,753.4,225.8,755.1,225.8z"/>
		<path class="st0" d="M421.8,239.3h11.7v3.4h-7.9v3.3h6.7v3.2h-6.7v3.4h8v3.4h-11.8L421.8,239.3L421.8,239.3z"/>
		<path class="st0" d="M437.1,239.3h5.3l3,8l3-8h5.3V256H450v-11.7l-3.3,8.3h-2.6l-3.3-8.3V256h-3.7L437.1,239.3L437.1,239.3z"/>
		<path class="st0" d="M457.7,239.3h6.2c3.2,0,5.6,1.7,5.6,4.5c0,1.6-0.8,2.7-2,3.4c1.7,0.8,2.7,2.2,2.7,4.2c0,2.9-2.5,4.6-5.7,4.6
			h-6.8L457.7,239.3L457.7,239.3z M461.5,242.6v3.5h2.1c1.2,0,2-0.6,2-1.7c0-1.1-0.8-1.7-2-1.7h-2.1V242.6z M461.5,249v3.7h2.6
			c1.3,0,2.2-0.6,2.2-1.9c0-1.2-0.9-1.9-2.2-1.9L461.5,249L461.5,249z"/>
		<path class="st0" d="M480.3,239c4.3,0,7.9,3.2,7.9,8.6c0,5.4-3.6,8.6-7.9,8.6c-4.4,0-7.9-3.2-7.9-8.6
			C472.4,242.3,476,239,480.3,239z M480.3,252.8c2.3,0,4-1.7,4-5.2s-1.7-5.2-4-5.2s-4,1.7-4,5.2
			C476.4,251.1,478.1,252.8,480.3,252.8z"/>
		<path class="st0" d="M491.3,239.3h6.3c4.5,0,8,3.1,8,8.3s-3.5,8.3-8,8.3h-6.3V239.3z M495.2,242.7v9.9h2.1c2.7,0,4.4-1.6,4.4-5
			c0-3.3-1.8-5-4.4-5h-2.1V242.7z"/>
		<path class="st0" d="M508.3,253.1h2.2v-10.9h-2.2v-2.9h8.2v2.9h-2.2v10.9h2.2v2.9h-8.2V253.1z"/>
		<path class="st0" d="M520.1,239.3h11.7v3.4h-7.9v3.3h6.7v3.2h-6.7v3.4h8v3.4h-11.8V239.3z"/>
		<path class="st0" d="M535.3,239.3h6.3c4.5,0,8,3.1,8,8.3s-3.5,8.3-8,8.3h-6.3V239.3z M539.2,242.7v9.9h2.1c2.7,0,4.4-1.6,4.4-5
			c0-3.3-1.8-5-4.4-5h-2.1V242.7z"/>
		<path class="st0" d="M558.3,253.1h2.2v-10.9h-2.2v-2.9h8.2v2.9h-2.2v10.9h2.2v2.9h-8.2V253.1z"/>
		<path class="st0" d="M570.1,239.3h5l5.8,11.8v-11.8h3.5V256h-4.7l-6.1-12.4V256h-3.5V239.3z"/>
		<path class="st0" d="M591.4,242.7h-4.5v-3.4h13v3.4h-4.5V256h-3.9L591.4,242.7L591.4,242.7z"/>
		<path class="st0" d="M602.4,239.3h11.7v3.4h-7.9v3.3h6.7v3.2h-6.7v3.4h8v3.4h-11.8V239.3z"/>
		<path class="st0" d="M617.7,239.3h6.3c3.5,0,6.2,2.1,6.2,5.6c0,2.3-1.3,3.9-3.2,4.8l3.7,6.4h-4.3l-3-5.8h-1.9v5.8h-3.9v-16.8
			H617.7z M621.6,242.7v4.4h2.1c1.6,0,2.6-0.7,2.6-2.2s-1.1-2.2-2.6-2.2H621.6z"/>
		<path class="st0" d="M637.4,239.3h3.7l6.1,16.7H643l-1.1-3.3h-5.6l-1.1,3.3h-4L637.4,239.3z M640.9,249.6l-1.8-5.3l-1.8,5.3H640.9
			z"/>
		<path class="st0" d="M656.2,239c2.1,0,3.8,0.6,5.5,1.7l-2.1,3.1c-1-0.7-2.2-1.2-3.5-1.2c-2.3,0-4.2,1.7-4.2,5s1.9,5,4.2,5
			c1.3,0,2.5-0.5,3.5-1.3l2.2,3c-1.6,1.3-3.3,2-5.5,2c-4.5,0-8.3-3.2-8.3-8.6C647.9,242.3,651.8,239,656.2,239z"/>
		<path class="st0" d="M667.7,242.7h-4.5v-3.4h13v3.4h-4.5V256h-3.9L667.7,242.7L667.7,242.7z"/>
		<path class="st0" d="M678.2,253.1h2.2v-10.9h-2.2v-2.9h8.2v2.9h-2.2v10.9h2.2v2.9h-8.2V253.1z"/>
		<path class="st0" d="M697,239c4.3,0,7.9,3.2,7.9,8.6c0,5.4-3.6,8.6-7.9,8.6c-4.4,0-7.9-3.2-7.9-8.6C689.1,242.3,692.6,239,697,239
			z M697,252.8c2.3,0,4-1.7,4-5.2s-1.7-5.2-4-5.2s-4,1.7-4,5.2S694.7,252.8,697,252.8z"/>
		<path class="st0" d="M707.9,239.3h5l5.8,11.8v-11.8h3.5V256h-4.7l-6.1-12.4V256h-3.5V239.3z"/>
	</g>
	<g>
		<path class="st0" d="M421.2,158.4l5.7-5.7c2-2,2.4-2.7,2.4-3.9c0-1.5-1.1-2.8-3.1-2.8c-1.6,0-2.7,0.7-3.8,2l-1.5-1.5
			c1.4-1.6,3.1-2.6,5.4-2.6c2.9,0,5.3,2,5.3,4.9c0,1.6-0.7,3.1-3.2,5.5l-3.9,3.8h7.4v2h-10.7L421.2,158.4L421.2,158.4z"/>
		<path class="st0" d="M441.4,143.9c1.3,0,2.6,0.4,3.7,1.2l-1.1,1.8c-0.8-0.6-1.6-1-2.8-1c-2,0-4.2,1.7-4.4,5.9c0.9-1.3,2.5-2,4.1-2
			c2.8,0,5,2,5,5c0,3.2-2.5,5.4-5.5,5.4c-3.4,0-5.8-2.8-5.8-7.6C434.5,146.8,438,143.9,441.4,143.9z M436.8,153.6
			c0.2,3.1,1.7,4.6,3.6,4.6c1.7,0,3.1-1.4,3.1-3.4c0-1.8-1.3-2.9-3.1-2.9C439,151.9,437.7,152.5,436.8,153.6z"/>
		<path class="st0" d="M454.6,144.1h9.9v2h-7.7v5.4h6.8v2h-6.8v6.5h-2.2L454.6,144.1L454.6,144.1z"/>
		<path class="st0" d="M467.5,144.1h10.2v2h-8v4.8h6.9v2h-6.9v5.1h8.2v2h-10.4L467.5,144.1L467.5,144.1z"/>
		<path class="st0" d="M481.5,144.1h5.5c2.8,0,5,1.5,5,4.2c0,1.5-0.8,2.7-2.1,3.3c1.7,0.6,2.8,1.9,2.8,3.8c0,2.9-2.4,4.5-5.3,4.5
			h-5.9V144.1z M483.7,146v4.8h3.2c1.6,0,2.9-0.8,2.9-2.4c0-1.5-1.2-2.4-2.9-2.4L483.7,146L483.7,146z M483.7,152.7v5.3h3.6
			c1.7,0,3.1-1,3.1-2.7s-1.3-2.6-3.1-2.6H483.7z"/>
		<path class="st0" d="M496.2,144.1h5.3c3.1,0,5.6,1.7,5.6,4.9c0,2.5-1.5,4.1-3.7,4.7l4.1,6.2h-2.6l-3.7-6h-2.8v6h-2.2L496.2,144.1
			L496.2,144.1z M498.4,146.1v6h3c2,0,3.4-1.1,3.4-3s-1.5-3-3.4-3H498.4z"/>
		<path class="st0" d="M510.6,144.1h2.2v9.9c0,2.7,1.5,4.2,3.9,4.2c2.3,0,3.9-1.5,3.9-4.2v-9.9h2.2v10.1c0,3.8-2.6,6-6,6s-6-2.1-6-6
			v-10.1H510.6z"/>
		<path class="st0" d="M530.9,144.1h1.9l6.1,15.8h-2.4l-1.7-4.5h-6.2l-1.7,4.5h-2.3L530.9,144.1z M534.1,153.5l-2.3-6.3l-2.3,6.3
			H534.1z"/>
		<path class="st0" d="M541.4,144.1h5.3c3.1,0,5.6,1.7,5.6,4.9c0,2.5-1.5,4.1-3.7,4.7l4.1,6.2h-2.6l-3.7-6h-2.8v6h-2.2L541.4,144.1
			L541.4,144.1z M543.6,146.1v6h3c2,0,3.4-1.1,3.4-3s-1.5-3-3.4-3H543.6z"/>
		<path class="st0" d="M559.6,153.5l-5.6-9.3h2.5l4.2,7.3l4.2-7.3h2.4l-5.6,9.3v6.5h-2.2L559.6,153.5L559.6,153.5z"/>
		<path class="st0" d="M574.4,152.7h5.7v1.8h-5.7V152.7z"/>
		<path class="st0" d="M588.6,158.1h4v-11.6l-3.2,1.5l-0.8-1.8l4.6-2.1h1.6v14h3.8v1.9h-10L588.6,158.1L588.6,158.1z"/>
		<path class="st0" d="M608.1,144.1h3.2l4.1,9.2l4.1-9.2h3.2v15.8h-2.2v-13.2l-4.4,9.6h-1.4l-4.4-9.6v13.2h-2.2L608.1,144.1
			L608.1,144.1z"/>
		<path class="st0" d="M631.3,144.1h1.9l6.1,15.8H637l-1.7-4.5h-6.2l-1.7,4.5h-2.3L631.3,144.1z M634.6,153.5l-2.3-6.3l-2.3,6.3
			H634.6z"/>
		<path class="st0" d="M641.9,144.1h5.3c3.1,0,5.6,1.7,5.6,4.9c0,2.5-1.5,4.1-3.7,4.7l4.1,6.2h-2.6l-3.7-6h-2.8v6h-2.2L641.9,144.1
			L641.9,144.1z M644.1,146.1v6h3c2,0,3.4-1.1,3.4-3s-1.5-3-3.4-3H644.1z"/>
		<path class="st0" d="M662.9,143.9c1.8,0,3.5,0.8,4.9,2.1l-1.6,1.5c-0.9-1-2.1-1.5-3.3-1.5c-2.8,0-4.9,2.1-4.9,6.1s2.1,6.1,4.9,6.1
			c1.4,0,2.6-0.5,3.6-1.6l1.5,1.5c-1.4,1.4-3.1,2.2-5.1,2.2c-3.9,0-7.2-2.9-7.2-8.2C655.7,146.8,658.9,143.9,662.9,143.9z"/>
		<path class="st0" d="M671.1,144.1h2.2v6.8h7.9v-6.8h2.2v15.8h-2.2v-7h-7.9v7h-2.2V144.1z"/>
		<path class="st0" d="M693.3,143.4h1.9v21.5h-1.9V143.4z"/>
		<path class="st0" d="M704.2,158.4l5.7-5.7c2-2,2.4-2.7,2.4-3.9c0-1.5-1.1-2.8-3.1-2.8c-1.6,0-2.7,0.7-3.8,2l-1.5-1.5
			c1.4-1.6,3.1-2.6,5.4-2.6c2.9,0,5.3,2,5.3,4.9c0,1.6-0.7,3.1-3.2,5.5l-3.9,3.8h7.4v2h-10.7L704.2,158.4L704.2,158.4z"/>
		<path class="st0" d="M723.2,143.9c3.3,0,6,2.6,6,8.2c0,5.6-2.7,8.2-6,8.2s-6-2.6-6-8.2C717.2,146.4,719.9,143.9,723.2,143.9z
			 M723.2,158.1c2.2,0,3.8-1.8,3.8-6.1s-1.6-6.1-3.8-6.1s-3.8,1.8-3.8,6.1S721.1,158.1,723.2,158.1z"/>
		<path class="st0" d="M731.3,158.4l5.7-5.7c2-2,2.4-2.7,2.4-3.9c0-1.5-1.1-2.8-3.1-2.8c-1.6,0-2.7,0.7-3.8,2l-1.5-1.5
			c1.4-1.6,3.1-2.6,5.4-2.6c2.9,0,5.3,2,5.3,4.9c0,1.6-0.7,3.1-3.2,5.5l-3.9,3.8h7.4v2h-10.7L731.3,158.4L731.3,158.4z"/>
		<path class="st0" d="M745.9,156.5c1,1.1,2.3,1.6,3.9,1.6c2,0,3.5-1,3.5-2.8s-1.7-2.8-3.9-2.8h-1.9V151l4.5-4.8h-7.1v-2.1h10.2v1.5
			l-4.7,5c3,0.1,5.3,1.6,5.3,4.7c0,3.2-2.7,4.9-5.8,4.9c-2.2,0-4-0.7-5.4-2.2L745.9,156.5z"/>
		<path class="st0" d="M764.8,143.4h1.9v21.5h-1.9V143.4z"/>
		<path class="st0" d="M777,144.1l3.6,12.3l3.7-12.3h1.9l3.7,12.3l3.6-12.3h2.3l-5,15.8H789l-3.7-11.9l-3.7,11.9h-1.8l-5-15.8H777z"
			/>
		<path class="st0" d="M802.2,144.1h1.9l6.1,15.8h-2.4l-1.7-4.5H800l-1.7,4.5H796L802.2,144.1z M805.4,153.5l-2.3-6.3l-2.3,6.3
			H805.4z"/>
		<path class="st0" d="M812.7,144.1h5.3c3.1,0,5.6,1.7,5.6,4.9c0,2.5-1.5,4.1-3.7,4.7l4.1,6.2h-2.6l-3.7-6h-2.8v6h-2.2L812.7,144.1
			L812.7,144.1z M814.9,146.1v6h3c2,0,3.4-1.1,3.4-3s-1.5-3-3.4-3H814.9z"/>
		<path class="st0" d="M827.3,156.2c1.3,1.3,3,2,5.1,2s3.3-1,3.3-2.2s-0.8-2.1-3.9-3.1c-3.9-1.3-5.1-2.7-5.1-4.7
			c0-2.4,2.2-4.3,5.4-4.3c1.8,0,3.8,0.7,5.3,2l-1.3,1.7c-1.1-1.1-2.6-1.7-4.2-1.7c-2,0-3.1,1-3.1,2.2c0,1,0.8,1.8,3.6,2.7
			c4.1,1.3,5.5,3,5.5,5.1c0,2.5-2,4.4-5.7,4.4c-2.3,0-4.8-1-6.2-2.4L827.3,156.2z"/>
		<path class="st0" d="M845.5,144.1h1.9l6.1,15.8h-2.4l-1.7-4.5h-6.2l-1.7,4.5h-2.3L845.5,144.1z M848.8,153.5l-2.3-6.3l-2.3,6.3
			H848.8z"/>
		<path class="st0" d="M856.2,144.1l3.6,12.3l3.7-12.3h1.9l3.7,12.3l3.6-12.3h2.3l-5,15.8h-1.8l-3.7-11.9l-3.7,11.9H859l-5-15.8
			H856.2z"/>
	</g>
	<g>
		<rect x="351.4" y="143.4" class="st0" width="22.6" height="22.6"/>
		<polygon class="st0" points="351.4,211.3 351.4,233.9 351.4,256.6 374,256.6 374,233.9 374,211.3 374,188.7 351.4,188.7 		"/>
		<polygon class="st0" points="283.5,143.4 260.8,143.4 260.8,166.1 260.8,188.7 238.2,188.7 215.6,188.7 215.6,188.7 192.9,188.7 
			170.3,188.7 147.7,188.7 147.7,211.3 170.3,211.3 192.9,211.3 192.9,233.9 192.9,256.6 215.6,256.6 215.6,233.9 215.6,211.3 
			238.2,211.3 260.8,211.3 260.8,233.9 260.8,256.6 283.5,256.6 306.1,256.6 328.7,256.6 328.7,233.9 306.1,233.9 283.5,233.9 
			283.5,211.3 306.1,211.3 328.7,211.3 328.7,188.7 306.1,188.7 283.5,188.7 283.5,166.1 306.1,166.1 328.7,166.1 328.7,143.4 
			306.1,143.4 		"/>
		<path class="st0" d="M160,150.8c3.2,0,4.8,1.9,4.8,4.3c0,2.2-1.5,4.4-5,7.8L148,174.4v5.5h26v-7.4h-14l4.9-4.3
			c6.1-5.4,8.6-9.3,8.6-14.2c0-6.3-5.4-11-12.5-11c-5.4,0-10,2.4-13.5,5.6l4.6,6.1C154.4,152.4,157.2,150.8,160,150.8z"/>
		<path class="st0" d="M190.7,173.2c-3.3,0-5.9-1.4-8-3.7l-4.4,6c3.5,3.2,7.8,5,13.4,5c7.4,0,13.9-4.1,13.9-11.9
			c0-6.1-4.2-9.7-10.2-10.6l8.9-8.8v-5.5h-24.5v7.4H194l-8.2,8.4v4.5h4.7c4.7,0,6.7,2,6.7,4.7C197.2,171.6,194.6,173.2,190.7,173.2z
			"/>
	</g>
</g>
</svg>
